<mxfile host="app.diagrams.net" modified="2023-12-07T06:50:31.431Z" agent="Mozilla/5.0 (Windows NT 10.0; Win64; x64) AppleWebKit/537.36 (KHTML, like Gecko) Chrome/119.0.0.0 Safari/537.36" version="22.1.7" etag="eTKohxm5t3XSZNy7fp4v" type="github">
  <diagram name="第 1 页" id="OY9O41iBbWUumy981ocX">
    <mxGraphModel>
      <root>
        <mxCell id="0" />
        <mxCell id="1" parent="0" />
      </root>
    </mxGraphModel>
  </diagram>
</mxfile>
